Coordinates
version=1
nRows=5
nColumns=40
inDegrees=yes

Units are S.I. units (second, meters, Newtons, ...)
Angles are in degrees.

endheader
time	pelvis_tilt	pelvis_list	pelvis_rotation	pelvis_tx	pelvis_ty	pelvis_tz	hip_flexion_r	hip_adduction_r	hip_rotation_r	knee_angle_r	knee_angle_r_beta	ankle_angle_r	subtalar_angle_r	mtp_angle_r	hip_flexion_l	hip_adduction_l	hip_rotation_l	knee_angle_l	knee_angle_l_beta	ankle_angle_l	subtalar_angle_l	mtp_angle_l	lumbar_extension	lumbar_bending	lumbar_rotation	arm_flex_r	arm_add_r	arm_rot_r	elbow_flex_r	pro_sup_r	wrist_flex_r	wrist_dev_r	arm_flex_l	arm_add_l	arm_rot_l	elbow_flex_l	pro_sup_l	wrist_flex_l	wrist_dev_l
     17.55500000	     -4.09539776	     -5.62987252	     -0.89775778	      0.92586034	      0.91968432	      0.54225629	     12.64052611	      7.40505651	    -10.06962395	     22.93020423	     22.93020423	     15.85394237	     -8.67790516	     -0.17306570	     30.45734958	    -12.53632005	      3.98632392	     66.77267703	     66.77267703	     12.49092820	    -19.59795215	     23.58849516	    -11.18323759	      6.63544716	      0.32496907	     12.99287013	    -16.49406658	    -12.87421726	     38.07101524	     46.38903088	      0.00000000	      0.00000000	      9.63399485	     -8.54823691	      0.20006759	     29.64764143	     46.08522629	      0.00000000	      0.00000000
     17.57457143	     -4.02866200	     -5.66361866	     -0.49053568	      0.92427086	      0.91845985	      0.54381206	     12.60991639	      7.53376094	    -10.09076438	     23.54009061	     23.54009061	     16.34649940	     -9.30937569	     -0.07041633	     31.77595108	    -12.42316897	      4.20887090	     65.72953734	     65.72953734	     13.25229674	    -19.61038136	     23.60427523	    -11.34310723	      6.32275364	      0.10165341	     15.41086901	    -16.04967670	    -12.52646472	     40.71500822	     46.26908762	      0.00000000	      0.00000000	      7.61524420	     -8.29883934	      0.63884035	     27.89399336	     45.99033580	      0.00000000	      0.00000000
     17.59414286	     -3.98859402	     -5.57878725	     -0.09560039	      0.92273373	      0.91741028	      0.54503169	     12.61488462	      7.50219323	    -10.15559123	     24.17818633	     24.17818633	     16.82405381	     -9.89356593	     -0.07429950	     32.86828494	    -12.17492716	      4.21537063	     63.93545732	     63.93545732	     13.90176063	    -19.60894882	     23.56474381	    -11.46191120	      5.90965364	     -0.12632724	     17.95100241	    -15.53354958	    -12.27053932	     43.28797580	     46.16628790	      0.00000000	      0.00000000	      5.65672958	     -8.07581878	      0.97010518	     26.31466512	     45.90865133	      0.00000000	      0.00000000
     17.61371429	     -4.00689950	     -5.47700195	      0.28128220	      0.92124809	      0.91663755	      0.54596307	     12.53969811	      7.44035060	    -10.24151778	     24.55525780	     24.55525780	     17.20720186	    -10.27871122	      0.01790970	     33.78949436	    -11.88918728	      4.10198572	     61.46225212	     61.46225212	     14.27659254	    -19.59010044	     23.39852429	    -11.51728694	      5.51987475	     -0.27809291	     20.43155930	    -15.10131101	    -11.88327510	     46.27773955	     46.04338416	      0.00000000	      0.00000000	      3.73589920	     -7.84194464	      1.30513482	     24.87413000	     45.82319965	      0.00000000	      0.00000000
     17.63328571	     -4.11555757	     -5.40675584	      0.67484945	      0.91983236	      0.91604663	      0.54652925	     12.47623646	      7.36856166	    -10.48204751	     24.80603275	     24.80603275	     17.76435610	    -10.33013120	      0.73892440	     34.53486861	    -11.58942742	      3.94858321	     58.30565915	     58.30565915	     13.88417136	    -19.55615804	     21.98168915	    -11.55578953	      5.23436806	      0.42414661	     21.13258988	    -16.00338010	     -9.85034875	     52.95986069	     45.69256519	      0.00000000	      0.00000000	      2.28101188	     -7.54983260	      2.45380476	     23.74931693	     45.59622972	      0.00000000	      0.00000000
